<?xml version="1.0" encoding="UTF-8" standalone="no"?>
<!DOCTYPE svg PUBLIC "-//W3C//DTD SVG 1.1//EN"
 "http://www.w3.org/Graphics/SVG/1.1/DTD/svg11.dtd">
<!-- Generated by graphviz version 2.38.0 (20140413.2041)
 -->
<!-- Title: %3 Pages: 1 -->
<svg width="7181pt" height="260pt"
 viewBox="0.00 0.00 7181.23 260.00" xmlns="http://www.w3.org/2000/svg" xmlns:xlink="http://www.w3.org/1999/xlink">
<g id="graph0" class="graph" transform="scale(1 1) rotate(0) translate(4 256)">
<title>%3</title>
<polygon fill="white" stroke="none" points="-4,4 -4,-256 7177.23,-256 7177.23,4 -4,4"/>
<!-- s9&#45;puma&#45;dra&#45;na/Metrics -->
<g id="node1" class="node"><title>s9&#45;puma&#45;dra&#45;na/Metrics</title>
<ellipse fill="none" stroke="black" cx="3808.14" cy="-162" rx="97.4827" ry="18"/>
<text text-anchor="middle" x="3808.14" y="-158.3" font-family="Times New Roman,serif" font-size="14.00">s9&#45;puma&#45;dra&#45;na/Metrics</text>
</g>
<!-- s9&#45;puma&#45;dra&#45;na/Metrics&#45;&gt;s9&#45;puma&#45;dra&#45;na/Metrics -->
<g id="edge1" class="edge"><title>s9&#45;puma&#45;dra&#45;na/Metrics&#45;&gt;s9&#45;puma&#45;dra&#45;na/Metrics</title>
<path fill="none" stroke="black" d="M3873.44,-175.381C3900.6,-176.304 3923.63,-171.844 3923.63,-162 3923.63,-153.425 3906.16,-148.935 3883.7,-148.53"/>
<polygon fill="black" stroke="black" points="3883.41,-145.032 3873.44,-148.619 3883.47,-152.032 3883.41,-145.032"/>
</g>
<!-- s9&#45;dra&#45;eml&#45;na/ModelData -->
<g id="node2" class="node"><title>s9&#45;dra&#45;eml&#45;na/ModelData</title>
<ellipse fill="none" stroke="black" cx="3659.14" cy="-90" rx="102.882" ry="18"/>
<text text-anchor="middle" x="3659.14" y="-86.3" font-family="Times New Roman,serif" font-size="14.00">s9&#45;dra&#45;eml&#45;na/ModelData</text>
</g>
<!-- s9&#45;puma&#45;dra&#45;na/Metrics&#45;&gt;s9&#45;dra&#45;eml&#45;na/ModelData -->
<g id="edge2" class="edge"><title>s9&#45;puma&#45;dra&#45;na/Metrics&#45;&gt;s9&#45;dra&#45;eml&#45;na/ModelData</title>
<path fill="none" stroke="black" d="M3774.33,-145.116C3753.05,-135.118 3725.38,-122.118 3702.49,-111.366"/>
<polygon fill="black" stroke="black" points="3703.87,-108.148 3693.33,-107.064 3700.89,-114.484 3703.87,-108.148"/>
</g>
<!-- s9&#45;puma&#45;dra&#45;na/AdvertiserEvents -->
<g id="node3" class="node"><title>s9&#45;puma&#45;dra&#45;na/AdvertiserEvents</title>
<ellipse fill="none" stroke="black" cx="1483.14" cy="-90" rx="131.877" ry="18"/>
<text text-anchor="middle" x="1483.14" y="-86.3" font-family="Times New Roman,serif" font-size="14.00">s9&#45;puma&#45;dra&#45;na/AdvertiserEvents</text>
</g>
<!-- s9&#45;puma&#45;dra&#45;na/Metrics&#45;&gt;s9&#45;puma&#45;dra&#45;na/AdvertiserEvents -->
<g id="edge35" class="edge"><title>s9&#45;puma&#45;dra&#45;na/Metrics&#45;&gt;s9&#45;puma&#45;dra&#45;na/AdvertiserEvents</title>
<path fill="none" stroke="black" d="M3710.54,-161.451C3404.03,-162.31 2433.8,-160.51 1633.14,-108 1617.42,-106.969 1600.87,-105.561 1584.71,-103.992"/>
<polygon fill="black" stroke="black" points="1585.01,-100.505 1574.71,-102.997 1584.32,-107.471 1585.01,-100.505"/>
</g>
<!-- s9&#45;puma&#45;dra&#45;na/PurchaseFiltering -->
<g id="node4" class="node"><title>s9&#45;puma&#45;dra&#45;na/PurchaseFiltering</title>
<ellipse fill="none" stroke="black" cx="933.139" cy="-18" rx="132.677" ry="18"/>
<text text-anchor="middle" x="933.139" y="-14.3" font-family="Times New Roman,serif" font-size="14.00">s9&#45;puma&#45;dra&#45;na/PurchaseFiltering</text>
</g>
<!-- s9&#45;puma&#45;dra&#45;na/Metrics&#45;&gt;s9&#45;puma&#45;dra&#45;na/PurchaseFiltering -->
<g id="edge39" class="edge"><title>s9&#45;puma&#45;dra&#45;na/Metrics&#45;&gt;s9&#45;puma&#45;dra&#45;na/PurchaseFiltering</title>
<path fill="none" stroke="black" d="M3810.15,-143.75C3811.48,-123.095 3810.02,-89.1439 3789.14,-72 3735.42,-27.8941 1356.61,-38.1673 1287.14,-36 1212.99,-33.6869 1130.17,-29.7822 1063.29,-26.2979"/>
<polygon fill="black" stroke="black" points="1063.29,-22.7931 1053.12,-25.7649 1062.92,-29.7835 1063.29,-22.7931"/>
</g>
<!-- s9&#45;dra&#45;redshift&#45;na/retailEventsDailyRedshiftv6 -->
<g id="node5" class="node"><title>s9&#45;dra&#45;redshift&#45;na/retailEventsDailyRedshiftv6</title>
<ellipse fill="none" stroke="black" cx="4251.14" cy="-90" rx="176.569" ry="18"/>
<text text-anchor="middle" x="4251.14" y="-86.3" font-family="Times New Roman,serif" font-size="14.00">s9&#45;dra&#45;redshift&#45;na/retailEventsDailyRedshiftv6</text>
</g>
<!-- s9&#45;puma&#45;dra&#45;na/Metrics&#45;&gt;s9&#45;dra&#45;redshift&#45;na/retailEventsDailyRedshiftv6 -->
<g id="edge4" class="edge"><title>s9&#45;puma&#45;dra&#45;na/Metrics&#45;&gt;s9&#45;dra&#45;redshift&#45;na/retailEventsDailyRedshiftv6</title>
<path fill="none" stroke="black" d="M3879.81,-149.675C3952.99,-138.112 4067.25,-120.057 4149.71,-107.028"/>
<polygon fill="black" stroke="black" points="4150.27,-110.483 4159.6,-105.465 4149.17,-103.568 4150.27,-110.483"/>
</g>
<!-- s9&#45;puma&#45;dra&#45;permanent&#45;na/Metrics -->
<g id="node9" class="node"><title>s9&#45;puma&#45;dra&#45;permanent&#45;na/Metrics</title>
<ellipse fill="none" stroke="black" cx="6425.14" cy="-90" rx="137.576" ry="18"/>
<text text-anchor="middle" x="6425.14" y="-86.3" font-family="Times New Roman,serif" font-size="14.00">s9&#45;puma&#45;dra&#45;permanent&#45;na/Metrics</text>
</g>
<!-- s9&#45;puma&#45;dra&#45;na/Metrics&#45;&gt;s9&#45;puma&#45;dra&#45;permanent&#45;na/Metrics -->
<g id="edge29" class="edge"><title>s9&#45;puma&#45;dra&#45;na/Metrics&#45;&gt;s9&#45;puma&#45;dra&#45;permanent&#45;na/Metrics</title>
<path fill="none" stroke="black" d="M3905.14,-160.135C4302.13,-156.406 5804.35,-140.407 6278.14,-108 6292.09,-107.046 6306.76,-105.728 6321.2,-104.246"/>
<polygon fill="black" stroke="black" points="6321.58,-107.726 6331.16,-103.195 6320.84,-100.764 6321.58,-107.726"/>
</g>
<!-- s9&#45;puma&#45;dra&#45;na/BrandSafety -->
<g id="node10" class="node"><title>s9&#45;puma&#45;dra&#45;na/BrandSafety</title>
<ellipse fill="none" stroke="black" cx="4561.14" cy="-90" rx="115.08" ry="18"/>
<text text-anchor="middle" x="4561.14" y="-86.3" font-family="Times New Roman,serif" font-size="14.00">s9&#45;puma&#45;dra&#45;na/BrandSafety</text>
</g>
<!-- s9&#45;puma&#45;dra&#45;na/Metrics&#45;&gt;s9&#45;puma&#45;dra&#45;na/BrandSafety -->
<g id="edge11" class="edge"><title>s9&#45;puma&#45;dra&#45;na/Metrics&#45;&gt;s9&#45;puma&#45;dra&#45;na/BrandSafety</title>
<path fill="none" stroke="black" d="M3897.86,-154.919C4020.02,-146.303 4245.43,-129.203 4437.14,-108 4447.72,-106.83 4458.8,-105.484 4469.79,-104.074"/>
<polygon fill="black" stroke="black" points="4470.38,-107.527 4479.84,-102.764 4469.47,-100.586 4470.38,-107.527"/>
</g>
<!-- s9&#45;puma&#45;dra&#45;eu/Metrics -->
<g id="node12" class="node"><title>s9&#45;puma&#45;dra&#45;eu/Metrics</title>
<ellipse fill="none" stroke="black" cx="4810.14" cy="-90" rx="97.4827" ry="18"/>
<text text-anchor="middle" x="4810.14" y="-86.3" font-family="Times New Roman,serif" font-size="14.00">s9&#45;puma&#45;dra&#45;eu/Metrics</text>
</g>
<!-- s9&#45;puma&#45;dra&#45;na/Metrics&#45;&gt;s9&#45;puma&#45;dra&#45;eu/Metrics -->
<g id="edge13" class="edge"><title>s9&#45;puma&#45;dra&#45;na/Metrics&#45;&gt;s9&#45;puma&#45;dra&#45;eu/Metrics</title>
<path fill="none" stroke="black" d="M3903.77,-158.426C4067.75,-153.322 4413,-139.562 4703.14,-108 4712.44,-106.989 4722.16,-105.729 4731.79,-104.355"/>
<polygon fill="black" stroke="black" points="4732.39,-107.805 4741.78,-102.888 4731.37,-100.879 4732.39,-107.805"/>
</g>
<!-- s9&#45;puma&#45;dra&#45;na/Impressions -->
<g id="node17" class="node"><title>s9&#45;puma&#45;dra&#45;na/Impressions</title>
<ellipse fill="none" stroke="black" cx="5040.14" cy="-90" rx="114.28" ry="18"/>
<text text-anchor="middle" x="5040.14" y="-86.3" font-family="Times New Roman,serif" font-size="14.00">s9&#45;puma&#45;dra&#45;na/Impressions</text>
</g>
<!-- s9&#45;puma&#45;dra&#45;na/Metrics&#45;&gt;s9&#45;puma&#45;dra&#45;na/Impressions -->
<g id="edge18" class="edge"><title>s9&#45;puma&#45;dra&#45;na/Metrics&#45;&gt;s9&#45;puma&#45;dra&#45;na/Impressions</title>
<path fill="none" stroke="black" d="M3904.67,-159.253C4097.35,-155.132 4543.15,-142.42 4916.14,-108 4927.27,-106.973 4938.93,-105.672 4950.46,-104.25"/>
<polygon fill="black" stroke="black" points="4951.07,-107.701 4960.55,-102.972 4950.19,-100.757 4951.07,-107.701"/>
</g>
<!-- s9&#45;dra&#45;redshift&#45;na/losingBidsInternalDailyRedshiftv6 -->
<g id="node20" class="node"><title>s9&#45;dra&#45;redshift&#45;na/losingBidsInternalDailyRedshiftv6</title>
<ellipse fill="none" stroke="black" cx="5391.14" cy="-90" rx="200.365" ry="18"/>
<text text-anchor="middle" x="5391.14" y="-86.3" font-family="Times New Roman,serif" font-size="14.00">s9&#45;dra&#45;redshift&#45;na/losingBidsInternalDailyRedshiftv6</text>
</g>
<!-- s9&#45;puma&#45;dra&#45;na/Metrics&#45;&gt;s9&#45;dra&#45;redshift&#45;na/losingBidsInternalDailyRedshiftv6 -->
<g id="edge21" class="edge"><title>s9&#45;puma&#45;dra&#45;na/Metrics&#45;&gt;s9&#45;dra&#45;redshift&#45;na/losingBidsInternalDailyRedshiftv6</title>
<path fill="none" stroke="black" d="M3904.34,-158.683C4128.35,-152.981 4702.22,-136.616 5181.14,-108 5201.06,-106.809 5222.04,-105.354 5242.7,-103.801"/>
<polygon fill="black" stroke="black" points="5243.12,-107.28 5252.82,-103.031 5242.58,-100.3 5243.12,-107.28"/>
</g>
<!-- s9&#45;puma&#45;dra&#45;na/FunnelMetrics -->
<g id="node22" class="node"><title>s9&#45;puma&#45;dra&#45;na/FunnelMetrics</title>
<ellipse fill="none" stroke="black" cx="5731.14" cy="-90" rx="122.379" ry="18"/>
<text text-anchor="middle" x="5731.14" y="-86.3" font-family="Times New Roman,serif" font-size="14.00">s9&#45;puma&#45;dra&#45;na/FunnelMetrics</text>
</g>
<!-- s9&#45;puma&#45;dra&#45;na/Metrics&#45;&gt;s9&#45;puma&#45;dra&#45;na/FunnelMetrics -->
<g id="edge23" class="edge"><title>s9&#45;puma&#45;dra&#45;na/Metrics&#45;&gt;s9&#45;puma&#45;dra&#45;na/FunnelMetrics</title>
<path fill="none" stroke="black" d="M3905.94,-161.52C4176.07,-162.219 4955.17,-159.259 5600.14,-108 5612.23,-107.039 5624.91,-105.751 5637.42,-104.31"/>
<polygon fill="black" stroke="black" points="5637.89,-107.779 5647.41,-103.126 5637.07,-100.828 5637.89,-107.779"/>
</g>
<!-- s9&#45;dra&#45;redshift&#45;na/advertisingEventsDailyRedshiftv6 -->
<g id="node23" class="node"><title>s9&#45;dra&#45;redshift&#45;na/advertisingEventsDailyRedshiftv6</title>
<ellipse fill="none" stroke="black" cx="6070.14" cy="-90" rx="198.765" ry="18"/>
<text text-anchor="middle" x="6070.14" y="-86.3" font-family="Times New Roman,serif" font-size="14.00">s9&#45;dra&#45;redshift&#45;na/advertisingEventsDailyRedshiftv6</text>
</g>
<!-- s9&#45;puma&#45;dra&#45;na/Metrics&#45;&gt;s9&#45;dra&#45;redshift&#45;na/advertisingEventsDailyRedshiftv6 -->
<g id="edge24" class="edge"><title>s9&#45;puma&#45;dra&#45;na/Metrics&#45;&gt;s9&#45;dra&#45;redshift&#45;na/advertisingEventsDailyRedshiftv6</title>
<path fill="none" stroke="black" d="M3905.51,-160.414C4200.4,-158.224 5109.66,-148.427 5862.14,-108 5882.27,-106.918 5903.48,-105.504 5924.34,-103.952"/>
<polygon fill="black" stroke="black" points="5924.84,-107.424 5934.55,-103.18 5924.32,-100.444 5924.84,-107.424"/>
</g>
<!-- s9&#45;dra&#45;redshift&#45;na/triggeredPuntsDailyRedshiftv6 -->
<g id="node25" class="node"><title>s9&#45;dra&#45;redshift&#45;na/triggeredPuntsDailyRedshiftv6</title>
<ellipse fill="none" stroke="black" cx="1839.14" cy="-90" rx="187.667" ry="18"/>
<text text-anchor="middle" x="1839.14" y="-86.3" font-family="Times New Roman,serif" font-size="14.00">s9&#45;dra&#45;redshift&#45;na/triggeredPuntsDailyRedshiftv6</text>
</g>
<!-- s9&#45;puma&#45;dra&#45;na/Metrics&#45;&gt;s9&#45;dra&#45;redshift&#45;na/triggeredPuntsDailyRedshiftv6 -->
<g id="edge26" class="edge"><title>s9&#45;puma&#45;dra&#45;na/Metrics&#45;&gt;s9&#45;dra&#45;redshift&#45;na/triggeredPuntsDailyRedshiftv6</title>
<path fill="none" stroke="black" d="M3711.05,-160.011C3443.75,-156.874 2674.47,-145.059 2036.14,-108 2017.32,-106.907 1997.5,-105.501 1977.99,-103.966"/>
<polygon fill="black" stroke="black" points="1978.06,-100.461 1967.82,-103.152 1977.51,-107.438 1978.06,-100.461"/>
</g>
<!-- s9&#45;dra&#45;redshift&#45;na/attributedEventsDailyRedshiftv6 -->
<g id="node26" class="node"><title>s9&#45;dra&#45;redshift&#45;na/attributedEventsDailyRedshiftv6</title>
<ellipse fill="none" stroke="black" cx="2239.14" cy="-90" rx="194.166" ry="18"/>
<text text-anchor="middle" x="2239.14" y="-86.3" font-family="Times New Roman,serif" font-size="14.00">s9&#45;dra&#45;redshift&#45;na/attributedEventsDailyRedshiftv6</text>
</g>
<!-- s9&#45;puma&#45;dra&#45;na/Metrics&#45;&gt;s9&#45;dra&#45;redshift&#45;na/attributedEventsDailyRedshiftv6 -->
<g id="edge27" class="edge"><title>s9&#45;puma&#45;dra&#45;na/Metrics&#45;&gt;s9&#45;dra&#45;redshift&#45;na/attributedEventsDailyRedshiftv6</title>
<path fill="none" stroke="black" d="M3712.01,-158.75C3488.83,-153.202 2918.28,-137.159 2442.14,-108 2423.04,-106.83 2402.94,-105.396 2383.13,-103.86"/>
<polygon fill="black" stroke="black" points="2383.36,-100.368 2373.11,-103.074 2382.81,-107.346 2383.36,-100.368"/>
</g>
<!-- s9&#45;dra&#45;redshift&#45;na/losingBidsDailyRedshiftv6 -->
<g id="node33" class="node"><title>s9&#45;dra&#45;redshift&#45;na/losingBidsDailyRedshiftv6</title>
<ellipse fill="none" stroke="black" cx="2625.14" cy="-90" rx="173.569" ry="18"/>
<text text-anchor="middle" x="2625.14" y="-86.3" font-family="Times New Roman,serif" font-size="14.00">s9&#45;dra&#45;redshift&#45;na/losingBidsDailyRedshiftv6</text>
</g>
<!-- s9&#45;puma&#45;dra&#45;na/Metrics&#45;&gt;s9&#45;dra&#45;redshift&#45;na/losingBidsDailyRedshiftv6 -->
<g id="edge38" class="edge"><title>s9&#45;puma&#45;dra&#45;na/Metrics&#45;&gt;s9&#45;dra&#45;redshift&#45;na/losingBidsDailyRedshiftv6</title>
<path fill="none" stroke="black" d="M3713.96,-157.256C3536.58,-149.928 3140.84,-132.26 2808.14,-108 2791.38,-106.778 2773.77,-105.339 2756.37,-103.825"/>
<polygon fill="black" stroke="black" points="2756.43,-100.316 2746.16,-102.925 2755.81,-107.289 2756.43,-100.316"/>
</g>
<!-- s9&#45;dra&#45;redshift&#45;na/triggeredPuntsInternalDailyRedshiftv6 -->
<g id="node39" class="node"><title>s9&#45;dra&#45;redshift&#45;na/triggeredPuntsInternalDailyRedshiftv6</title>
<ellipse fill="none" stroke="black" cx="3031.14" cy="-90" rx="214.462" ry="18"/>
<text text-anchor="middle" x="3031.14" y="-86.3" font-family="Times New Roman,serif" font-size="14.00">s9&#45;dra&#45;redshift&#45;na/triggeredPuntsInternalDailyRedshiftv6</text>
</g>
<!-- s9&#45;puma&#45;dra&#45;na/Metrics&#45;&gt;s9&#45;dra&#45;redshift&#45;na/triggeredPuntsInternalDailyRedshiftv6 -->
<g id="edge46" class="edge"><title>s9&#45;puma&#45;dra&#45;na/Metrics&#45;&gt;s9&#45;dra&#45;redshift&#45;na/triggeredPuntsInternalDailyRedshiftv6</title>
<path fill="none" stroke="black" d="M3722.76,-153.309C3592.54,-141.576 3342.45,-119.046 3181.38,-104.535"/>
<polygon fill="black" stroke="black" points="3181.66,-101.046 3171.38,-103.635 3181.03,-108.018 3181.66,-101.046"/>
</g>
<!-- s9&#45;puma&#45;dra&#45;na/Recommendations -->
<g id="node43" class="node"><title>s9&#45;puma&#45;dra&#45;na/Recommendations</title>
<ellipse fill="none" stroke="black" cx="3401.14" cy="-90" rx="137.576" ry="18"/>
<text text-anchor="middle" x="3401.14" y="-86.3" font-family="Times New Roman,serif" font-size="14.00">s9&#45;puma&#45;dra&#45;na/Recommendations</text>
</g>
<!-- s9&#45;puma&#45;dra&#45;na/Metrics&#45;&gt;s9&#45;puma&#45;dra&#45;na/Recommendations -->
<g id="edge50" class="edge"><title>s9&#45;puma&#45;dra&#45;na/Metrics&#45;&gt;s9&#45;puma&#45;dra&#45;na/Recommendations</title>
<path fill="none" stroke="black" d="M3739.56,-149.205C3671.15,-137.44 3565.73,-119.308 3490.74,-106.411"/>
<polygon fill="black" stroke="black" points="3491.28,-102.953 3480.83,-104.707 3490.1,-109.851 3491.28,-102.953"/>
</g>
<!-- s9&#45;dra&#45;eml&#45;na/ModelData&#45;&gt;s9&#45;dra&#45;eml&#45;na/ModelData -->
<g id="edge10" class="edge"><title>s9&#45;dra&#45;eml&#45;na/ModelData&#45;&gt;s9&#45;dra&#45;eml&#45;na/ModelData</title>
<path fill="none" stroke="black" d="M3727.99,-103.4C3756.11,-104.24 3779.83,-99.7734 3779.83,-90 3779.83,-81.4482 3761.67,-76.9594 3738.29,-76.5335"/>
<polygon fill="black" stroke="black" points="3737.96,-73.0354 3727.99,-76.5997 3738.01,-80.0353 3737.96,-73.0354"/>
</g>
<!-- s9&#45;puma&#45;dra&#45;na/AdvertiserEvents&#45;&gt;s9&#45;puma&#45;dra&#45;na/Metrics -->
<g id="edge43" class="edge"><title>s9&#45;puma&#45;dra&#45;na/AdvertiserEvents&#45;&gt;s9&#45;puma&#45;dra&#45;na/Metrics</title>
<path fill="none" stroke="black" d="M1582.14,-101.952C1604.84,-104.314 1628.84,-106.537 1651.14,-108 2436.47,-159.504 3384.94,-162.223 3700.38,-161.497"/>
<polygon fill="black" stroke="black" points="3700.44,-164.997 3710.43,-161.472 3700.43,-157.997 3700.44,-164.997"/>
</g>
<!-- s9&#45;puma&#45;dra&#45;na/AdvertiserEvents&#45;&gt;s9&#45;puma&#45;dra&#45;na/AdvertiserEvents -->
<g id="edge5" class="edge"><title>s9&#45;puma&#45;dra&#45;na/AdvertiserEvents&#45;&gt;s9&#45;puma&#45;dra&#45;na/AdvertiserEvents</title>
<path fill="none" stroke="black" d="M1570.92,-103.447C1604.87,-104.045 1633.08,-99.5625 1633.08,-90 1633.08,-81.4087 1610.31,-76.918 1581.07,-76.5278"/>
<polygon fill="black" stroke="black" points="1580.92,-73.0281 1570.92,-76.5527 1580.93,-80.0281 1580.92,-73.0281"/>
</g>
<!-- s9&#45;puma&#45;dra&#45;na/AdvertiserEvents&#45;&gt;s9&#45;puma&#45;dra&#45;na/PurchaseFiltering -->
<g id="edge3" class="edge"><title>s9&#45;puma&#45;dra&#45;na/AdvertiserEvents&#45;&gt;s9&#45;puma&#45;dra&#45;na/PurchaseFiltering</title>
<path fill="none" stroke="black" d="M1390.15,-77.1651C1292.18,-64.6957 1138.26,-45.1064 1036.53,-32.1591"/>
<polygon fill="black" stroke="black" points="1036.91,-28.6789 1026.55,-30.8883 1036.03,-35.6229 1036.91,-28.6789"/>
</g>
<!-- s9&#45;puma&#45;dra&#45;na/AAX -->
<g id="node7" class="node"><title>s9&#45;puma&#45;dra&#45;na/AAX</title>
<ellipse fill="none" stroke="black" cx="2862.14" cy="-18" rx="89.0842" ry="18"/>
<text text-anchor="middle" x="2862.14" y="-14.3" font-family="Times New Roman,serif" font-size="14.00">s9&#45;puma&#45;dra&#45;na/AAX</text>
</g>
<!-- s9&#45;puma&#45;dra&#45;na/AdvertiserEvents&#45;&gt;s9&#45;puma&#45;dra&#45;na/AAX -->
<g id="edge7" class="edge"><title>s9&#45;puma&#45;dra&#45;na/AdvertiserEvents&#45;&gt;s9&#45;puma&#45;dra&#45;na/AAX</title>
<path fill="none" stroke="black" d="M1579.75,-77.6854C1600.32,-75.5523 1621.93,-73.5178 1642.14,-72 2058.46,-40.7322 2556.19,-26.2076 2763.73,-21.1692"/>
<polygon fill="black" stroke="black" points="2764.08,-24.6619 2773.99,-20.9221 2763.91,-17.6639 2764.08,-24.6619"/>
</g>
<!-- s9&#45;dra&#45;redshift&#45;na/advertiserEventsDailyRedshift -->
<g id="node13" class="node"><title>s9&#45;dra&#45;redshift&#45;na/advertiserEventsDailyRedshift</title>
<ellipse fill="none" stroke="black" cx="1483.14" cy="-18" rx="186.567" ry="18"/>
<text text-anchor="middle" x="1483.14" y="-14.3" font-family="Times New Roman,serif" font-size="14.00">s9&#45;dra&#45;redshift&#45;na/advertiserEventsDailyRedshift</text>
</g>
<!-- s9&#45;puma&#45;dra&#45;na/AdvertiserEvents&#45;&gt;s9&#45;dra&#45;redshift&#45;na/advertiserEventsDailyRedshift -->
<g id="edge14" class="edge"><title>s9&#45;puma&#45;dra&#45;na/AdvertiserEvents&#45;&gt;s9&#45;dra&#45;redshift&#45;na/advertiserEventsDailyRedshift</title>
<path fill="none" stroke="black" d="M1483.14,-71.6966C1483.14,-63.9827 1483.14,-54.7125 1483.14,-46.1124"/>
<polygon fill="black" stroke="black" points="1486.64,-46.1043 1483.14,-36.1043 1479.64,-46.1044 1486.64,-46.1043"/>
</g>
<!-- s9&#45;puma&#45;dra&#45;na/PurchaseFiltering&#45;&gt;s9&#45;puma&#45;dra&#45;na/PurchaseFiltering -->
<g id="edge32" class="edge"><title>s9&#45;puma&#45;dra&#45;na/PurchaseFiltering&#45;&gt;s9&#45;puma&#45;dra&#45;na/PurchaseFiltering</title>
<path fill="none" stroke="black" d="M1021.31,-31.4473C1055.39,-32.0449 1083.73,-27.5625 1083.73,-18 1083.73,-9.40869 1060.86,-4.91797 1031.49,-4.52784"/>
<polygon fill="black" stroke="black" points="1031.3,-1.0282 1021.31,-4.55273 1031.31,-8.02818 1031.3,-1.0282"/>
</g>
<!-- s9&#45;puma&#45;dra&#45;na/AdData -->
<g id="node6" class="node"><title>s9&#45;puma&#45;dra&#45;na/AdData</title>
<ellipse fill="none" stroke="black" cx="4997.14" cy="-234" rx="98.2828" ry="18"/>
<text text-anchor="middle" x="4997.14" y="-230.3" font-family="Times New Roman,serif" font-size="14.00">s9&#45;puma&#45;dra&#45;na/AdData</text>
</g>
<!-- s9&#45;puma&#45;dra&#45;na/AdData&#45;&gt;s9&#45;puma&#45;dra&#45;na/AdData -->
<g id="edge6" class="edge"><title>s9&#45;puma&#45;dra&#45;na/AdData&#45;&gt;s9&#45;puma&#45;dra&#45;na/AdData</title>
<path fill="none" stroke="black" d="M5062.81,-247.381C5090.12,-248.304 5113.28,-243.844 5113.28,-234 5113.28,-225.387 5095.55,-220.895 5072.82,-220.525"/>
<polygon fill="black" stroke="black" points="5072.77,-217.025 5062.81,-220.619 5072.84,-224.025 5072.77,-217.025"/>
</g>
<!-- CDS&#45;CN -->
<g id="node8" class="node"><title>CDS&#45;CN</title>
<ellipse fill="none" stroke="black" cx="1424.14" cy="-162" rx="44.393" ry="18"/>
<text text-anchor="middle" x="1424.14" y="-158.3" font-family="Times New Roman,serif" font-size="14.00">CDS&#45;CN</text>
</g>
<!-- CDS&#45;CN&#45;&gt;s9&#45;puma&#45;dra&#45;na/AdvertiserEvents -->
<g id="edge8" class="edge"><title>CDS&#45;CN&#45;&gt;s9&#45;puma&#45;dra&#45;na/AdvertiserEvents</title>
<path fill="none" stroke="black" d="M1437.82,-144.765C1445.06,-136.182 1454.09,-125.462 1462.19,-115.858"/>
<polygon fill="black" stroke="black" points="1464.94,-118.026 1468.71,-108.124 1459.58,-113.515 1464.94,-118.026"/>
</g>
<!-- s9&#45;puma&#45;dra&#45;permanent&#45;na/Metrics&#45;&gt;s9&#45;puma&#45;dra&#45;permanent&#45;na/Metrics -->
<g id="edge9" class="edge"><title>s9&#45;puma&#45;dra&#45;permanent&#45;na/Metrics&#45;&gt;s9&#45;puma&#45;dra&#45;permanent&#45;na/Metrics</title>
<path fill="none" stroke="black" d="M6516.74,-103.454C6551.83,-104.012 6580.93,-99.5273 6580.93,-90 6580.93,-81.4031 6557.24,-76.9121 6526.83,-76.5271"/>
<polygon fill="black" stroke="black" points="6526.73,-73.0272 6516.74,-76.5463 6526.74,-80.0271 6526.73,-73.0272"/>
</g>
<!-- s9&#45;dra&#45;redshift&#45;na/winningPriceByGlDailyRedshiftv6 -->
<g id="node40" class="node"><title>s9&#45;dra&#45;redshift&#45;na/winningPriceByGlDailyRedshiftv6</title>
<ellipse fill="none" stroke="black" cx="6425.14" cy="-18" rx="200.665" ry="18"/>
<text text-anchor="middle" x="6425.14" y="-14.3" font-family="Times New Roman,serif" font-size="14.00">s9&#45;dra&#45;redshift&#45;na/winningPriceByGlDailyRedshiftv6</text>
</g>
<!-- s9&#45;puma&#45;dra&#45;permanent&#45;na/Metrics&#45;&gt;s9&#45;dra&#45;redshift&#45;na/winningPriceByGlDailyRedshiftv6 -->
<g id="edge47" class="edge"><title>s9&#45;puma&#45;dra&#45;permanent&#45;na/Metrics&#45;&gt;s9&#45;dra&#45;redshift&#45;na/winningPriceByGlDailyRedshiftv6</title>
<path fill="none" stroke="black" d="M6425.14,-71.6966C6425.14,-63.9827 6425.14,-54.7125 6425.14,-46.1124"/>
<polygon fill="black" stroke="black" points="6428.64,-46.1043 6425.14,-36.1043 6421.64,-46.1044 6428.64,-46.1043"/>
</g>
<!-- s9&#45;puma&#45;dra&#45;na/BrandSafety&#45;&gt;s9&#45;puma&#45;dra&#45;na/BrandSafety -->
<g id="edge31" class="edge"><title>s9&#45;puma&#45;dra&#45;na/BrandSafety&#45;&gt;s9&#45;puma&#45;dra&#45;na/BrandSafety</title>
<path fill="none" stroke="black" d="M4638.03,-103.426C4668.59,-104.143 4694.18,-99.668 4694.18,-90 4694.18,-81.4272 4674.06,-76.9374 4648.2,-76.5304"/>
<polygon fill="black" stroke="black" points="4648.02,-73.0311 4638.03,-76.5744 4648.05,-80.031 4648.02,-73.0311"/>
</g>
<!-- etlbuilder&#45;metrics&#45;traffic&#45;finance&#45;orders&#45;by&#45;user&#45;agent&#45;id -->
<g id="node11" class="node"><title>etlbuilder&#45;metrics&#45;traffic&#45;finance&#45;orders&#45;by&#45;user&#45;agent&#45;id</title>
<ellipse fill="none" stroke="black" cx="6425.14" cy="-162" rx="214.462" ry="18"/>
<text text-anchor="middle" x="6425.14" y="-158.3" font-family="Times New Roman,serif" font-size="14.00">etlbuilder&#45;metrics&#45;traffic&#45;finance&#45;orders&#45;by&#45;user&#45;agent&#45;id</text>
</g>
<!-- etlbuilder&#45;metrics&#45;traffic&#45;finance&#45;orders&#45;by&#45;user&#45;agent&#45;id&#45;&gt;s9&#45;puma&#45;dra&#45;permanent&#45;na/Metrics -->
<g id="edge12" class="edge"><title>etlbuilder&#45;metrics&#45;traffic&#45;finance&#45;orders&#45;by&#45;user&#45;agent&#45;id&#45;&gt;s9&#45;puma&#45;dra&#45;permanent&#45;na/Metrics</title>
<path fill="none" stroke="black" d="M6425.14,-143.697C6425.14,-135.983 6425.14,-126.712 6425.14,-118.112"/>
<polygon fill="black" stroke="black" points="6428.64,-118.104 6425.14,-108.104 6421.64,-118.104 6428.64,-118.104"/>
</g>
<!-- purchase&#45;filter&#45;orders&#45;regional&#45;3 -->
<g id="node14" class="node"><title>purchase&#45;filter&#45;orders&#45;regional&#45;3</title>
<ellipse fill="none" stroke="black" cx="660.139" cy="-90" rx="127.277" ry="18"/>
<text text-anchor="middle" x="660.139" y="-86.3" font-family="Times New Roman,serif" font-size="14.00">purchase&#45;filter&#45;orders&#45;regional&#45;3</text>
</g>
<!-- purchase&#45;filter&#45;orders&#45;regional&#45;3&#45;&gt;s9&#45;puma&#45;dra&#45;na/PurchaseFiltering -->
<g id="edge15" class="edge"><title>purchase&#45;filter&#45;orders&#45;regional&#45;3&#45;&gt;s9&#45;puma&#45;dra&#45;na/PurchaseFiltering</title>
<path fill="none" stroke="black" d="M718.704,-73.9832C761.236,-63.0777 818.949,-48.2795 863.788,-36.7823"/>
<polygon fill="black" stroke="black" points="864.911,-40.1076 873.729,-34.2335 863.173,-33.327 864.911,-40.1076"/>
</g>
<!-- CurrencyConversionMap -->
<g id="node15" class="node"><title>CurrencyConversionMap</title>
<ellipse fill="none" stroke="black" cx="3410.14" cy="-234" rx="102.882" ry="18"/>
<text text-anchor="middle" x="3410.14" y="-230.3" font-family="Times New Roman,serif" font-size="14.00">CurrencyConversionMap</text>
</g>
<!-- CurrencyConversionMap&#45;&gt;s9&#45;puma&#45;dra&#45;na/Metrics -->
<g id="edge16" class="edge"><title>CurrencyConversionMap&#45;&gt;s9&#45;puma&#45;dra&#45;na/Metrics</title>
<path fill="none" stroke="black" d="M3479.92,-220.727C3549.87,-208.425 3657.33,-189.523 3730.08,-176.73"/>
<polygon fill="black" stroke="black" points="3730.86,-180.146 3740.1,-174.966 3729.65,-173.252 3730.86,-180.146"/>
</g>
<!-- purchase&#45;filter&#45;orders&#45;regional&#45;4 -->
<g id="node16" class="node"><title>purchase&#45;filter&#45;orders&#45;regional&#45;4</title>
<ellipse fill="none" stroke="black" cx="933.139" cy="-90" rx="127.277" ry="18"/>
<text text-anchor="middle" x="933.139" y="-86.3" font-family="Times New Roman,serif" font-size="14.00">purchase&#45;filter&#45;orders&#45;regional&#45;4</text>
</g>
<!-- purchase&#45;filter&#45;orders&#45;regional&#45;4&#45;&gt;s9&#45;puma&#45;dra&#45;na/PurchaseFiltering -->
<g id="edge17" class="edge"><title>purchase&#45;filter&#45;orders&#45;regional&#45;4&#45;&gt;s9&#45;puma&#45;dra&#45;na/PurchaseFiltering</title>
<path fill="none" stroke="black" d="M933.139,-71.6966C933.139,-63.9827 933.139,-54.7125 933.139,-46.1124"/>
<polygon fill="black" stroke="black" points="936.639,-46.1043 933.139,-36.1043 929.639,-46.1044 936.639,-46.1043"/>
</g>
<!-- s9&#45;puma&#45;dra&#45;na/Impressions&#45;&gt;s9&#45;puma&#45;dra&#45;na/Impressions -->
<g id="edge37" class="edge"><title>s9&#45;puma&#45;dra&#45;na/Impressions&#45;&gt;s9&#45;puma&#45;dra&#45;na/Impressions</title>
<path fill="none" stroke="black" d="M5116.66,-103.426C5147.07,-104.143 5172.53,-99.668 5172.53,-90 5172.53,-81.4272 5152.51,-76.9374 5126.77,-76.5304"/>
<polygon fill="black" stroke="black" points="5126.64,-73.0309 5116.66,-76.5744 5126.67,-80.0308 5126.64,-73.0309"/>
</g>
<!-- s9&#45;puma&#45;dra&#45;fe/AdData -->
<g id="node18" class="node"><title>s9&#45;puma&#45;dra&#45;fe/AdData</title>
<ellipse fill="none" stroke="black" cx="6064.14" cy="-234" rx="96.6831" ry="18"/>
<text text-anchor="middle" x="6064.14" y="-230.3" font-family="Times New Roman,serif" font-size="14.00">s9&#45;puma&#45;dra&#45;fe/AdData</text>
</g>
<!-- s9&#45;puma&#45;dra&#45;fe/AdData&#45;&gt;s9&#45;puma&#45;dra&#45;fe/AdData -->
<g id="edge19" class="edge"><title>s9&#45;puma&#45;dra&#45;fe/AdData&#45;&gt;s9&#45;puma&#45;dra&#45;fe/AdData</title>
<path fill="none" stroke="black" d="M6129.07,-247.381C6156.08,-248.304 6178.98,-243.844 6178.98,-234 6178.98,-225.425 6161.61,-220.935 6139.27,-220.53"/>
<polygon fill="black" stroke="black" points="6139.04,-217.032 6129.07,-220.619 6139.1,-224.032 6139.04,-217.032"/>
</g>
<!-- CDS&#45;IMDB -->
<g id="node19" class="node"><title>CDS&#45;IMDB</title>
<ellipse fill="none" stroke="black" cx="1541.14" cy="-162" rx="54.6905" ry="18"/>
<text text-anchor="middle" x="1541.14" y="-158.3" font-family="Times New Roman,serif" font-size="14.00">CDS&#45;IMDB</text>
</g>
<!-- CDS&#45;IMDB&#45;&gt;s9&#45;puma&#45;dra&#45;na/AdvertiserEvents -->
<g id="edge20" class="edge"><title>CDS&#45;IMDB&#45;&gt;s9&#45;puma&#45;dra&#45;na/AdvertiserEvents</title>
<path fill="none" stroke="black" d="M1527.39,-144.411C1520.35,-135.906 1511.62,-125.372 1503.78,-115.914"/>
<polygon fill="black" stroke="black" points="1506.26,-113.423 1497.19,-107.956 1500.87,-117.89 1506.26,-113.423"/>
</g>
<!-- etlbuilder&#45;conversionSpend -->
<g id="node21" class="node"><title>etlbuilder&#45;conversionSpend</title>
<ellipse fill="none" stroke="black" cx="3946.14" cy="-90" rx="110.48" ry="18"/>
<text text-anchor="middle" x="3946.14" y="-86.3" font-family="Times New Roman,serif" font-size="14.00">etlbuilder&#45;conversionSpend</text>
</g>
<!-- etlbuilder&#45;conversionSpend&#45;&gt;s9&#45;puma&#45;dra&#45;na/AAX -->
<g id="edge22" class="edge"><title>etlbuilder&#45;conversionSpend&#45;&gt;s9&#45;puma&#45;dra&#45;na/AAX</title>
<path fill="none" stroke="black" d="M3867.87,-77.289C3852.72,-75.3006 3836.96,-73.4223 3822.14,-72 3507.72,-41.8179 3133.59,-27.2973 2959.82,-21.776"/>
<polygon fill="black" stroke="black" points="2959.78,-18.2731 2949.68,-21.4567 2959.56,-25.2696 2959.78,-18.2731"/>
</g>
<!-- CDS&#45;US -->
<g id="node24" class="node"><title>CDS&#45;US</title>
<ellipse fill="none" stroke="black" cx="1657.14" cy="-162" rx="43.5923" ry="18"/>
<text text-anchor="middle" x="1657.14" y="-158.3" font-family="Times New Roman,serif" font-size="14.00">CDS&#45;US</text>
</g>
<!-- CDS&#45;US&#45;&gt;s9&#45;puma&#45;dra&#45;na/AdvertiserEvents -->
<g id="edge25" class="edge"><title>CDS&#45;US&#45;&gt;s9&#45;puma&#45;dra&#45;na/AdvertiserEvents</title>
<path fill="none" stroke="black" d="M1626.83,-148.807C1601,-138.415 1563.36,-123.273 1533.08,-111.093"/>
<polygon fill="black" stroke="black" points="1534.12,-107.737 1523.54,-107.252 1531.51,-114.231 1534.12,-107.737"/>
</g>
<!-- CDS&#45;CA -->
<g id="node27" class="node"><title>CDS&#45;CA</title>
<ellipse fill="none" stroke="black" cx="1763.14" cy="-162" rx="44.393" ry="18"/>
<text text-anchor="middle" x="1763.14" y="-158.3" font-family="Times New Roman,serif" font-size="14.00">CDS&#45;CA</text>
</g>
<!-- CDS&#45;CA&#45;&gt;s9&#45;puma&#45;dra&#45;na/AdvertiserEvents -->
<g id="edge28" class="edge"><title>CDS&#45;CA&#45;&gt;s9&#45;puma&#45;dra&#45;na/AdvertiserEvents</title>
<path fill="none" stroke="black" d="M1730.18,-149.974C1723.58,-147.892 1716.66,-145.803 1710.14,-144 1661.11,-130.436 1605.49,-117.414 1561.58,-107.671"/>
<polygon fill="black" stroke="black" points="1562.06,-104.193 1551.55,-105.456 1560.56,-111.029 1562.06,-104.193"/>
</g>
<!-- s9&#45;puma&#45;dra&#45;eu/AdvertiserEvents -->
<g id="node28" class="node"><title>s9&#45;puma&#45;dra&#45;eu/AdvertiserEvents</title>
<ellipse fill="none" stroke="black" cx="1132.14" cy="-162" rx="131.877" ry="18"/>
<text text-anchor="middle" x="1132.14" y="-158.3" font-family="Times New Roman,serif" font-size="14.00">s9&#45;puma&#45;dra&#45;eu/AdvertiserEvents</text>
</g>
<!-- s9&#45;puma&#45;dra&#45;eu/AdvertiserEvents&#45;&gt;s9&#45;puma&#45;dra&#45;na/AdvertiserEvents -->
<g id="edge30" class="edge"><title>s9&#45;puma&#45;dra&#45;eu/AdvertiserEvents&#45;&gt;s9&#45;puma&#45;dra&#45;na/AdvertiserEvents</title>
<path fill="none" stroke="black" d="M1203.59,-146.75C1261.22,-135.258 1342.27,-119.094 1402.27,-107.128"/>
<polygon fill="black" stroke="black" points="1402.96,-110.558 1412.09,-105.17 1401.59,-103.694 1402.96,-110.558"/>
</g>
<!-- CDS&#45;JP -->
<g id="node29" class="node"><title>CDS&#45;JP</title>
<ellipse fill="none" stroke="black" cx="1322.14" cy="-162" rx="40.0939" ry="18"/>
<text text-anchor="middle" x="1322.14" y="-158.3" font-family="Times New Roman,serif" font-size="14.00">CDS&#45;JP</text>
</g>
<!-- CDS&#45;JP&#45;&gt;s9&#45;puma&#45;dra&#45;na/AdvertiserEvents -->
<g id="edge33" class="edge"><title>CDS&#45;JP&#45;&gt;s9&#45;puma&#45;dra&#45;na/AdvertiserEvents</title>
<path fill="none" stroke="black" d="M1350.18,-148.807C1373.9,-138.496 1408.37,-123.506 1436.28,-111.375"/>
<polygon fill="black" stroke="black" points="1437.69,-114.579 1445.46,-107.382 1434.9,-108.159 1437.69,-114.579"/>
</g>
<!-- etlbuilder&#45;popularitems&#45;popularPurchases -->
<g id="node30" class="node"><title>etlbuilder&#45;popularitems&#45;popularPurchases</title>
<ellipse fill="none" stroke="black" cx="6776.14" cy="-234" rx="161.372" ry="18"/>
<text text-anchor="middle" x="6776.14" y="-230.3" font-family="Times New Roman,serif" font-size="14.00">etlbuilder&#45;popularitems&#45;popularPurchases</text>
</g>
<!-- s9&#45;puma&#45;dra&#45;na/PopularItems -->
<g id="node31" class="node"><title>s9&#45;puma&#45;dra&#45;na/PopularItems</title>
<ellipse fill="none" stroke="black" cx="6776.14" cy="-162" rx="118.079" ry="18"/>
<text text-anchor="middle" x="6776.14" y="-158.3" font-family="Times New Roman,serif" font-size="14.00">s9&#45;puma&#45;dra&#45;na/PopularItems</text>
</g>
<!-- etlbuilder&#45;popularitems&#45;popularPurchases&#45;&gt;s9&#45;puma&#45;dra&#45;na/PopularItems -->
<g id="edge34" class="edge"><title>etlbuilder&#45;popularitems&#45;popularPurchases&#45;&gt;s9&#45;puma&#45;dra&#45;na/PopularItems</title>
<path fill="none" stroke="black" d="M6776.14,-215.697C6776.14,-207.983 6776.14,-198.712 6776.14,-190.112"/>
<polygon fill="black" stroke="black" points="6779.64,-190.104 6776.14,-180.104 6772.64,-190.104 6779.64,-190.104"/>
</g>
<!-- purchase&#45;filter&#45;orders&#45;regional&#45;1 -->
<g id="node32" class="node"><title>purchase&#45;filter&#45;orders&#45;regional&#45;1</title>
<ellipse fill="none" stroke="black" cx="1206.14" cy="-90" rx="127.277" ry="18"/>
<text text-anchor="middle" x="1206.14" y="-86.3" font-family="Times New Roman,serif" font-size="14.00">purchase&#45;filter&#45;orders&#45;regional&#45;1</text>
</g>
<!-- purchase&#45;filter&#45;orders&#45;regional&#45;1&#45;&gt;s9&#45;puma&#45;dra&#45;na/PurchaseFiltering -->
<g id="edge36" class="edge"><title>purchase&#45;filter&#45;orders&#45;regional&#45;1&#45;&gt;s9&#45;puma&#45;dra&#45;na/PurchaseFiltering</title>
<path fill="none" stroke="black" d="M1147.57,-73.9832C1105.04,-63.0777 1047.33,-48.2795 1002.49,-36.7823"/>
<polygon fill="black" stroke="black" points="1003.11,-33.327 992.549,-34.2335 1001.37,-40.1076 1003.11,-33.327"/>
</g>
<!-- GLMatrix -->
<g id="node34" class="node"><title>GLMatrix</title>
<ellipse fill="none" stroke="black" cx="3577.14" cy="-234" rx="46.2923" ry="18"/>
<text text-anchor="middle" x="3577.14" y="-230.3" font-family="Times New Roman,serif" font-size="14.00">GLMatrix</text>
</g>
<!-- GLMatrix&#45;&gt;s9&#45;puma&#45;dra&#45;na/Metrics -->
<g id="edge40" class="edge"><title>GLMatrix&#45;&gt;s9&#45;puma&#45;dra&#45;na/Metrics</title>
<path fill="none" stroke="black" d="M3612.04,-222.17C3618.71,-220.112 3625.64,-217.983 3632.14,-216 3671.17,-204.091 3715.12,-190.855 3749.34,-180.59"/>
<polygon fill="black" stroke="black" points="3750.6,-183.865 3759.18,-177.64 3748.59,-177.16 3750.6,-183.865"/>
</g>
<!-- etlbuilder&#45;targeting&#45;data&#45;monitor&#45;requestids -->
<g id="node35" class="node"><title>etlbuilder&#45;targeting&#45;data&#45;monitor&#45;requestids</title>
<ellipse fill="none" stroke="black" cx="3808.14" cy="-234" rx="167.07" ry="18"/>
<text text-anchor="middle" x="3808.14" y="-230.3" font-family="Times New Roman,serif" font-size="14.00">etlbuilder&#45;targeting&#45;data&#45;monitor&#45;requestids</text>
</g>
<!-- etlbuilder&#45;targeting&#45;data&#45;monitor&#45;requestids&#45;&gt;s9&#45;puma&#45;dra&#45;na/Metrics -->
<g id="edge41" class="edge"><title>etlbuilder&#45;targeting&#45;data&#45;monitor&#45;requestids&#45;&gt;s9&#45;puma&#45;dra&#45;na/Metrics</title>
<path fill="none" stroke="black" d="M3808.14,-215.697C3808.14,-207.983 3808.14,-198.712 3808.14,-190.112"/>
<polygon fill="black" stroke="black" points="3811.64,-190.104 3808.14,-180.104 3804.64,-190.104 3811.64,-190.104"/>
</g>
<!-- purchase&#45;filter&#45;consumptions&#45;1 -->
<g id="node36" class="node"><title>purchase&#45;filter&#45;consumptions&#45;1</title>
<ellipse fill="none" stroke="black" cx="124.139" cy="-90" rx="124.278" ry="18"/>
<text text-anchor="middle" x="124.139" y="-86.3" font-family="Times New Roman,serif" font-size="14.00">purchase&#45;filter&#45;consumptions&#45;1</text>
</g>
<!-- purchase&#45;filter&#45;consumptions&#45;1&#45;&gt;s9&#45;puma&#45;dra&#45;na/PurchaseFiltering -->
<g id="edge42" class="edge"><title>purchase&#45;filter&#45;consumptions&#45;1&#45;&gt;s9&#45;puma&#45;dra&#45;na/PurchaseFiltering</title>
<path fill="none" stroke="black" d="M211.707,-77.1892C226.843,-75.3247 242.435,-73.5152 257.139,-72 447.924,-52.3399 669.669,-36.2374 805.695,-27.1272"/>
<polygon fill="black" stroke="black" points="805.999,-30.6147 815.744,-26.4564 805.533,-23.6303 805.999,-30.6147"/>
</g>
<!-- purchase&#45;filter&#45;consumptions&#45;6 -->
<g id="node37" class="node"><title>purchase&#45;filter&#45;consumptions&#45;6</title>
<ellipse fill="none" stroke="black" cx="390.139" cy="-90" rx="124.278" ry="18"/>
<text text-anchor="middle" x="390.139" y="-86.3" font-family="Times New Roman,serif" font-size="14.00">purchase&#45;filter&#45;consumptions&#45;6</text>
</g>
<!-- purchase&#45;filter&#45;consumptions&#45;6&#45;&gt;s9&#45;puma&#45;dra&#45;na/PurchaseFiltering -->
<g id="edge44" class="edge"><title>purchase&#45;filter&#45;consumptions&#45;6&#45;&gt;s9&#45;puma&#45;dra&#45;na/PurchaseFiltering</title>
<path fill="none" stroke="black" d="M479.5,-77.4801C575.937,-65.0482 729.274,-45.281 830.563,-32.2235"/>
<polygon fill="black" stroke="black" points="831.034,-35.6918 840.504,-30.9419 830.139,-28.7492 831.034,-35.6918"/>
</g>
<!-- metrics&#45;all&#45;orders&#45;with&#45;tags&#45;dwads&#45;region -->
<g id="node38" class="node"><title>metrics&#45;all&#45;orders&#45;with&#45;tags&#45;dwads&#45;region</title>
<ellipse fill="none" stroke="black" cx="4155.14" cy="-234" rx="161.671" ry="18"/>
<text text-anchor="middle" x="4155.14" y="-230.3" font-family="Times New Roman,serif" font-size="14.00">metrics&#45;all&#45;orders&#45;with&#45;tags&#45;dwads&#45;region</text>
</g>
<!-- metrics&#45;all&#45;orders&#45;with&#45;tags&#45;dwads&#45;region&#45;&gt;s9&#45;puma&#45;dra&#45;na/Metrics -->
<g id="edge45" class="edge"><title>metrics&#45;all&#45;orders&#45;with&#45;tags&#45;dwads&#45;region&#45;&gt;s9&#45;puma&#45;dra&#45;na/Metrics</title>
<path fill="none" stroke="black" d="M4080.7,-217.983C4021.78,-206.097 3939.93,-189.586 3881.33,-177.766"/>
<polygon fill="black" stroke="black" points="3881.9,-174.31 3871.41,-175.763 3880.52,-181.172 3881.9,-174.31"/>
</g>
<!-- DurableValues -->
<g id="node41" class="node"><title>DurableValues</title>
<ellipse fill="none" stroke="black" cx="4399.14" cy="-234" rx="63.8893" ry="18"/>
<text text-anchor="middle" x="4399.14" y="-230.3" font-family="Times New Roman,serif" font-size="14.00">DurableValues</text>
</g>
<!-- DurableValues&#45;&gt;s9&#45;puma&#45;dra&#45;na/Metrics -->
<g id="edge48" class="edge"><title>DurableValues&#45;&gt;s9&#45;puma&#45;dra&#45;na/Metrics</title>
<path fill="none" stroke="black" d="M4353.37,-221.405C4344.38,-219.394 4335,-217.478 4326.14,-216 4182.25,-191.983 4013.93,-177.185 3909.16,-169.526"/>
<polygon fill="black" stroke="black" points="3909.13,-166.016 3898.9,-168.785 3908.63,-172.997 3909.13,-166.016"/>
</g>
<!-- s9&#45;puma&#45;dra&#45;sin/AdData -->
<g id="node42" class="node"><title>s9&#45;puma&#45;dra&#45;sin/AdData</title>
<ellipse fill="none" stroke="black" cx="7055.14" cy="-234" rx="100.182" ry="18"/>
<text text-anchor="middle" x="7055.14" y="-230.3" font-family="Times New Roman,serif" font-size="14.00">s9&#45;puma&#45;dra&#45;sin/AdData</text>
</g>
<!-- s9&#45;puma&#45;dra&#45;sin/AdData&#45;&gt;s9&#45;puma&#45;dra&#45;sin/AdData -->
<g id="edge49" class="edge"><title>s9&#45;puma&#45;dra&#45;sin/AdData&#45;&gt;s9&#45;puma&#45;dra&#45;sin/AdData</title>
<path fill="none" stroke="black" d="M7122.21,-247.391C7149.85,-248.272 7173.23,-243.809 7173.23,-234 7173.23,-225.417 7155.33,-220.927 7132.34,-220.529"/>
<polygon fill="black" stroke="black" points="7132.18,-217.03 7122.21,-220.609 7132.23,-224.03 7132.18,-217.03"/>
</g>
</g>
</svg>
