<?xml version="1.0" encoding="UTF-8" standalone="no"?>
<!DOCTYPE svg PUBLIC "-//W3C//DTD SVG 1.1//EN"
 "http://www.w3.org/Graphics/SVG/1.1/DTD/svg11.dtd">
<!-- Generated by graphviz version 2.38.0 (20140413.2041)
 -->
<!-- Title: %3 Pages: 1 -->
<svg width="1380pt" height="260pt"
 viewBox="0.00 0.00 1380.22 260.00" xmlns="http://www.w3.org/2000/svg" xmlns:xlink="http://www.w3.org/1999/xlink">
<g id="graph0" class="graph" transform="scale(1 1) rotate(0) translate(4 256)">
<title>%3</title>
<polygon fill="white" stroke="none" points="-4,4 -4,-256 1376.22,-256 1376.22,4 -4,4"/>
<!-- s9&#45;puma&#45;dra&#45;na/AdvertiserEvents -->
<g id="node1" class="node"><title>s9&#45;puma&#45;dra&#45;na/AdvertiserEvents</title>
<ellipse fill="none" stroke="black" cx="697.691" cy="-162" rx="131.877" ry="18"/>
<text text-anchor="middle" x="697.691" y="-158.3" font-family="Times New Roman,serif" font-size="14.00">s9&#45;puma&#45;dra&#45;na/AdvertiserEvents</text>
</g>
<!-- s9&#45;puma&#45;dra&#45;na/AdvertiserEvents&#45;&gt;s9&#45;puma&#45;dra&#45;na/AdvertiserEvents -->
<g id="edge1" class="edge"><title>s9&#45;puma&#45;dra&#45;na/AdvertiserEvents&#45;&gt;s9&#45;puma&#45;dra&#45;na/AdvertiserEvents</title>
<path fill="none" stroke="black" d="M785.477,-175.447C819.418,-176.045 847.629,-171.563 847.629,-162 847.629,-153.409 824.858,-148.918 795.617,-148.528"/>
<polygon fill="black" stroke="black" points="795.468,-145.028 785.477,-148.553 795.485,-152.028 795.468,-145.028"/>
</g>
<!-- s9&#45;puma&#45;dra&#45;na/PurchaseFiltering -->
<g id="node2" class="node"><title>s9&#45;puma&#45;dra&#45;na/PurchaseFiltering</title>
<ellipse fill="none" stroke="black" cx="651.691" cy="-90" rx="132.677" ry="18"/>
<text text-anchor="middle" x="651.691" y="-86.3" font-family="Times New Roman,serif" font-size="14.00">s9&#45;puma&#45;dra&#45;na/PurchaseFiltering</text>
</g>
<!-- s9&#45;puma&#45;dra&#45;na/AdvertiserEvents&#45;&gt;s9&#45;puma&#45;dra&#45;na/PurchaseFiltering -->
<g id="edge2" class="edge"><title>s9&#45;puma&#45;dra&#45;na/AdvertiserEvents&#45;&gt;s9&#45;puma&#45;dra&#45;na/PurchaseFiltering</title>
<path fill="none" stroke="black" d="M686.556,-144.055C681.155,-135.837 674.554,-125.791 668.553,-116.66"/>
<polygon fill="black" stroke="black" points="671.46,-114.71 663.043,-108.275 665.61,-118.555 671.46,-114.71"/>
</g>
<!-- s9&#45;puma&#45;dra&#45;na/Metrics -->
<g id="node3" class="node"><title>s9&#45;puma&#45;dra&#45;na/Metrics</title>
<ellipse fill="none" stroke="black" cx="385.691" cy="-90" rx="97.4827" ry="18"/>
<text text-anchor="middle" x="385.691" y="-86.3" font-family="Times New Roman,serif" font-size="14.00">s9&#45;puma&#45;dra&#45;na/Metrics</text>
</g>
<!-- s9&#45;puma&#45;dra&#45;na/AdvertiserEvents&#45;&gt;s9&#45;puma&#45;dra&#45;na/Metrics -->
<g id="edge9" class="edge"><title>s9&#45;puma&#45;dra&#45;na/AdvertiserEvents&#45;&gt;s9&#45;puma&#45;dra&#45;na/Metrics</title>
<path fill="none" stroke="black" d="M628.229,-146.666C575.395,-135.148 503.259,-118.979 451.377,-107.034"/>
<polygon fill="black" stroke="black" points="452.14,-103.618 441.609,-104.779 450.566,-110.438 452.14,-103.618"/>
</g>
<!-- s9&#45;puma&#45;dra&#45;na/AAX -->
<g id="node4" class="node"><title>s9&#45;puma&#45;dra&#45;na/AAX</title>
<ellipse fill="none" stroke="black" cx="891.691" cy="-90" rx="89.0842" ry="18"/>
<text text-anchor="middle" x="891.691" y="-86.3" font-family="Times New Roman,serif" font-size="14.00">s9&#45;puma&#45;dra&#45;na/AAX</text>
</g>
<!-- s9&#45;puma&#45;dra&#45;na/AdvertiserEvents&#45;&gt;s9&#45;puma&#45;dra&#45;na/AAX -->
<g id="edge4" class="edge"><title>s9&#45;puma&#45;dra&#45;na/AdvertiserEvents&#45;&gt;s9&#45;puma&#45;dra&#45;na/AAX</title>
<path fill="none" stroke="black" d="M742.198,-144.941C771.471,-134.378 809.872,-120.522 840.423,-109.499"/>
<polygon fill="black" stroke="black" points="841.827,-112.713 850.045,-106.027 839.451,-106.129 841.827,-112.713"/>
</g>
<!-- s9&#45;dra&#45;redshift&#45;na/advertiserEventsDailyRedshift -->
<g id="node7" class="node"><title>s9&#45;dra&#45;redshift&#45;na/advertiserEventsDailyRedshift</title>
<ellipse fill="none" stroke="black" cx="1185.69" cy="-90" rx="186.567" ry="18"/>
<text text-anchor="middle" x="1185.69" y="-86.3" font-family="Times New Roman,serif" font-size="14.00">s9&#45;dra&#45;redshift&#45;na/advertiserEventsDailyRedshift</text>
</g>
<!-- s9&#45;puma&#45;dra&#45;na/AdvertiserEvents&#45;&gt;s9&#45;dra&#45;redshift&#45;na/advertiserEventsDailyRedshift -->
<g id="edge7" class="edge"><title>s9&#45;puma&#45;dra&#45;na/AdvertiserEvents&#45;&gt;s9&#45;dra&#45;redshift&#45;na/advertiserEventsDailyRedshift</title>
<path fill="none" stroke="black" d="M784.936,-148.485C866.373,-136.804 988.211,-119.327 1076.16,-106.712"/>
<polygon fill="black" stroke="black" points="1076.77,-110.16 1086.17,-105.275 1075.78,-103.231 1076.77,-110.16"/>
</g>
<!-- s9&#45;puma&#45;dra&#45;na/Metrics&#45;&gt;s9&#45;puma&#45;dra&#45;na/AdvertiserEvents -->
<g id="edge13" class="edge"><title>s9&#45;puma&#45;dra&#45;na/Metrics&#45;&gt;s9&#45;puma&#45;dra&#45;na/AdvertiserEvents</title>
<path fill="none" stroke="black" d="M448.193,-103.82C499.758,-115.02 572.832,-131.374 626.609,-143.726"/>
<polygon fill="black" stroke="black" points="625.886,-147.151 636.416,-145.983 627.456,-140.329 625.886,-147.151"/>
</g>
<!-- s9&#45;puma&#45;dra&#45;na/Metrics&#45;&gt;s9&#45;puma&#45;dra&#45;na/Metrics -->
<g id="edge3" class="edge"><title>s9&#45;puma&#45;dra&#45;na/Metrics&#45;&gt;s9&#45;puma&#45;dra&#45;na/Metrics</title>
<path fill="none" stroke="black" d="M450.991,-103.381C478.155,-104.304 501.182,-99.8438 501.182,-90 501.182,-81.4252 483.709,-76.9352 461.249,-76.5301"/>
<polygon fill="black" stroke="black" points="460.96,-73.0324 450.991,-76.6187 461.021,-80.0321 460.96,-73.0324"/>
</g>
<!-- s9&#45;dra&#45;redshift&#45;na/retailEventsDailyRedshiftv6 -->
<g id="node5" class="node"><title>s9&#45;dra&#45;redshift&#45;na/retailEventsDailyRedshiftv6</title>
<ellipse fill="none" stroke="black" cx="219.691" cy="-18" rx="176.569" ry="18"/>
<text text-anchor="middle" x="219.691" y="-14.3" font-family="Times New Roman,serif" font-size="14.00">s9&#45;dra&#45;redshift&#45;na/retailEventsDailyRedshiftv6</text>
</g>
<!-- s9&#45;puma&#45;dra&#45;na/Metrics&#45;&gt;s9&#45;dra&#45;redshift&#45;na/retailEventsDailyRedshiftv6 -->
<g id="edge5" class="edge"><title>s9&#45;puma&#45;dra&#45;na/Metrics&#45;&gt;s9&#45;dra&#45;redshift&#45;na/retailEventsDailyRedshiftv6</title>
<path fill="none" stroke="black" d="M348.437,-73.2906C324.873,-63.3541 294.156,-50.4009 268.635,-39.6391"/>
<polygon fill="black" stroke="black" points="269.708,-36.2933 259.134,-35.6327 266.988,-42.7433 269.708,-36.2933"/>
</g>
<!-- s9&#45;puma&#45;dra&#45;permanent&#45;na/Metrics -->
<g id="node6" class="node"><title>s9&#45;puma&#45;dra&#45;permanent&#45;na/Metrics</title>
<ellipse fill="none" stroke="black" cx="552.691" cy="-18" rx="137.576" ry="18"/>
<text text-anchor="middle" x="552.691" y="-14.3" font-family="Times New Roman,serif" font-size="14.00">s9&#45;puma&#45;dra&#45;permanent&#45;na/Metrics</text>
</g>
<!-- s9&#45;puma&#45;dra&#45;na/Metrics&#45;&gt;s9&#45;puma&#45;dra&#45;permanent&#45;na/Metrics -->
<g id="edge12" class="edge"><title>s9&#45;puma&#45;dra&#45;na/Metrics&#45;&gt;s9&#45;puma&#45;dra&#45;permanent&#45;na/Metrics</title>
<path fill="none" stroke="black" d="M423.169,-73.2906C447.15,-63.2385 478.497,-50.0991 504.346,-39.2645"/>
<polygon fill="black" stroke="black" points="505.727,-42.4807 513.596,-35.387 503.02,-36.0249 505.727,-42.4807"/>
</g>
<!-- s9&#45;puma&#45;dra&#45;permanent&#45;na/Metrics&#45;&gt;s9&#45;puma&#45;dra&#45;permanent&#45;na/Metrics -->
<g id="edge6" class="edge"><title>s9&#45;puma&#45;dra&#45;permanent&#45;na/Metrics&#45;&gt;s9&#45;puma&#45;dra&#45;permanent&#45;na/Metrics</title>
<path fill="none" stroke="black" d="M644.29,-31.4537C679.382,-32.0119 708.479,-27.5273 708.479,-18 708.479,-9.40306 684.788,-4.91209 654.378,-4.52708"/>
<polygon fill="black" stroke="black" points="654.283,-1.02715 644.29,-4.54635 654.297,-8.02714 654.283,-1.02715"/>
</g>
<!-- CurrencyConversionMap -->
<g id="node8" class="node"><title>CurrencyConversionMap</title>
<ellipse fill="none" stroke="black" cx="102.691" cy="-162" rx="102.882" ry="18"/>
<text text-anchor="middle" x="102.691" y="-158.3" font-family="Times New Roman,serif" font-size="14.00">CurrencyConversionMap</text>
</g>
<!-- CurrencyConversionMap&#45;&gt;s9&#45;puma&#45;dra&#45;na/Metrics -->
<g id="edge8" class="edge"><title>CurrencyConversionMap&#45;&gt;s9&#45;puma&#45;dra&#45;na/Metrics</title>
<path fill="none" stroke="black" d="M159.62,-146.919C205.978,-135.452 271.466,-119.254 320.033,-107.24"/>
<polygon fill="black" stroke="black" points="320.951,-110.619 329.818,-104.82 319.27,-103.824 320.951,-110.619"/>
</g>
<!-- metrics&#45;all&#45;orders&#45;with&#45;tags&#45;dwads&#45;region -->
<g id="node9" class="node"><title>metrics&#45;all&#45;orders&#45;with&#45;tags&#45;dwads&#45;region</title>
<ellipse fill="none" stroke="black" cx="385.691" cy="-162" rx="161.671" ry="18"/>
<text text-anchor="middle" x="385.691" y="-158.3" font-family="Times New Roman,serif" font-size="14.00">metrics&#45;all&#45;orders&#45;with&#45;tags&#45;dwads&#45;region</text>
</g>
<!-- metrics&#45;all&#45;orders&#45;with&#45;tags&#45;dwads&#45;region&#45;&gt;s9&#45;puma&#45;dra&#45;na/Metrics -->
<g id="edge10" class="edge"><title>metrics&#45;all&#45;orders&#45;with&#45;tags&#45;dwads&#45;region&#45;&gt;s9&#45;puma&#45;dra&#45;na/Metrics</title>
<path fill="none" stroke="black" d="M385.691,-143.697C385.691,-135.983 385.691,-126.712 385.691,-118.112"/>
<polygon fill="black" stroke="black" points="389.191,-118.104 385.691,-108.104 382.191,-118.104 389.191,-118.104"/>
</g>
<!-- s9&#45;puma&#45;dra&#45;eu/AdvertiserEvents -->
<g id="node10" class="node"><title>s9&#45;puma&#45;dra&#45;eu/AdvertiserEvents</title>
<ellipse fill="none" stroke="black" cx="697.691" cy="-234" rx="131.877" ry="18"/>
<text text-anchor="middle" x="697.691" y="-230.3" font-family="Times New Roman,serif" font-size="14.00">s9&#45;puma&#45;dra&#45;eu/AdvertiserEvents</text>
</g>
<!-- s9&#45;puma&#45;dra&#45;eu/AdvertiserEvents&#45;&gt;s9&#45;puma&#45;dra&#45;na/AdvertiserEvents -->
<g id="edge11" class="edge"><title>s9&#45;puma&#45;dra&#45;eu/AdvertiserEvents&#45;&gt;s9&#45;puma&#45;dra&#45;na/AdvertiserEvents</title>
<path fill="none" stroke="black" d="M697.691,-215.697C697.691,-207.983 697.691,-198.712 697.691,-190.112"/>
<polygon fill="black" stroke="black" points="701.191,-190.104 697.691,-180.104 694.191,-190.104 701.191,-190.104"/>
</g>
</g>
</svg>
